<?xml version="1.0" encoding="UTF-8"?>
<!DOCTYPE svg PUBLIC "-//W3C//DTD SVG 1.1//EN" "http://www.w3.org/Graphics/SVG/1.1/DTD/svg11.dtd">
<!-- Creator: CorelDRAW 2020 (64-Bit) -->
<svg xmlns="http://www.w3.org/2000/svg" xml:space="preserve" width="297mm" height="210mm" version="1.1" style="shape-rendering:geometricPrecision; text-rendering:geometricPrecision; image-rendering:optimizeQuality; fill-rule:evenodd; clip-rule:evenodd"
viewBox="0 0 29700 21000"
 xmlns:xlink="http://www.w3.org/1999/xlink"
 xmlns:xodm="http://www.corel.com/coreldraw/odm/2003">
 <defs>
  <style type="text/css">
   <![CDATA[
    .fil257 {fill:#2B2A29}
    .fil193 {fill:#FDF2DE}
    .fil194 {fill:#FDF2DC}
    .fil192 {fill:#FCF1DC}
    .fil195 {fill:#FCF1DB}
    .fil196 {fill:#FCF0DA}
    .fil197 {fill:#FBEFD9}
    .fil191 {fill:#FAEFD8}
    .fil198 {fill:#FBEFD8}
    .fil199 {fill:#FBEFD7}
    .fil65 {fill:#FBE4B7}
    .fil64 {fill:#FBE4B6}
    .fil63 {fill:#FBE4B5}
    .fil62 {fill:#FBE3B4}
    .fil200 {fill:#FAEED6}
    .fil201 {fill:#FAEDD5}
    .fil202 {fill:#FAEDD3}
    .fil66 {fill:#FAE3B4}
    .fil61 {fill:#FBE2B2}
    .fil60 {fill:#FBE2B1}
    .fil59 {fill:#FAE1B0}
    .fil58 {fill:#FAE0AF}
    .fil57 {fill:#FAE0AE}
    .fil56 {fill:#FAE0AD}
    .fil190 {fill:#F8EDD5}
    .fil203 {fill:#FAECD2}
    .fil204 {fill:#FAECD1}
    .fil55 {fill:#F9DFAC}
    .fil54 {fill:#F9DEAB}
    .fil53 {fill:#F9DEAA}
    .fil52 {fill:#F9DEA9}
    .fil51 {fill:#F9DDA8}
    .fil50 {fill:#F9DCA7}
    .fil49 {fill:#F9DCA6}
    .fil189 {fill:#F7EBD3}
    .fil205 {fill:#F9EBD0}
    .fil206 {fill:#F9EACF}
    .fil207 {fill:#F9EACE}
    .fil67 {fill:#F8E1B1}
    .fil48 {fill:#F8DBA5}
    .fil47 {fill:#F8DBA5}
    .fil46 {fill:#F8DAA4}
    .fil45 {fill:#F7DAA2}
    .fil44 {fill:#F7D9A1}
    .fil43 {fill:#F7D9A0}
    .fil208 {fill:#F8E9CD}
    .fil209 {fill:#F8E8CB}
    .fil210 {fill:#F8E8CB}
    .fil42 {fill:#F6D89F}
    .fil41 {fill:#F6D79E}
    .fil40 {fill:#F6D79D}
    .fil39 {fill:#F6D69C}
    .fil38 {fill:#F6D69B}
    .fil37 {fill:#F6D69A}
    .fil36 {fill:#F6D699}
    .fil188 {fill:#F5E9D0}
    .fil211 {fill:#F7E7CA}
    .fil212 {fill:#F7E7C8}
    .fil68 {fill:#F6DEAE}
    .fil35 {fill:#F5D598}
    .fil34 {fill:#F5D597}
    .fil33 {fill:#F5D496}
    .fil32 {fill:#F4D395}
    .fil31 {fill:#F4D294}
    .fil30 {fill:#F4D293}
    .fil29 {fill:#F4D292}
    .fil187 {fill:#F4E6CC}
    .fil213 {fill:#F6E6C7}
    .fil214 {fill:#F6E5C6}
    .fil215 {fill:#F6E5C5}
    .fil69 {fill:#F5DCAB}
    .fil28 {fill:#F3D191}
    .fil27 {fill:#F3D191}
    .fil26 {fill:#F3D090}
    .fil25 {fill:#F3D08E}
    .fil24 {fill:#F3CF8D}
    .fil23 {fill:#F3CE8C}
    .fil186 {fill:#F3E5CA}
    .fil216 {fill:#F6E4C3}
    .fil217 {fill:#F6E4C3}
    .fil22 {fill:#F3CE8B}
    .fil21 {fill:#F2CD8A}
    .fil20 {fill:#F3CD89}
    .fil19 {fill:#F2CD88}
    .fil18 {fill:#F2CC87}
    .fil17 {fill:#F2CB86}
    .fil16 {fill:#F2CB85}
    .fil218 {fill:#F5E3C2}
    .fil219 {fill:#F5E3C1}
    .fil220 {fill:#F5E2BF}
    .fil70 {fill:#F2DAA8}
    .fil15 {fill:#F1CA84}
    .fil14 {fill:#F1C983}
    .fil13 {fill:#F1C983}
    .fil12 {fill:#F1C982}
    .fil11 {fill:#F1C981}
    .fil10 {fill:#F1C880}
    .fil9 {fill:#F1C87F}
    .fil185 {fill:#F0E2C6}
    .fil221 {fill:#F4E1BE}
    .fil222 {fill:#F4E1BD}
    .fil223 {fill:#F4E0BC}
    .fil8 {fill:#F0C77E}
    .fil7 {fill:#F0C67C}
    .fil6 {fill:#F0C67B}
    .fil5 {fill:#EFC57A}
    .fil4 {fill:#EFC479}
    .fil3 {fill:#EFC478}
    .fil184 {fill:#F0E1C4}
    .fil224 {fill:#F3DFBB}
    .fil225 {fill:#F3DFBA}
    .fil71 {fill:#F1D8A5}
    .fil2 {fill:#EEC377}
    .fil1 {fill:#EEC376}
    .fil0 {fill:#EEC375}
    .fil183 {fill:#EEDFC1}
    .fil226 {fill:#F2DEB9}
    .fil227 {fill:#F2DEB7}
    .fil228 {fill:#F2DDB6}
    .fil72 {fill:#EFD6A2}
    .fil229 {fill:#F2DCB5}
    .fil230 {fill:#F2DCB4}
    .fil231 {fill:#F2DCB3}
    .fil182 {fill:#ECDCBD}
    .fil232 {fill:#F1DBB2}
    .fil233 {fill:#F1DBB1}
    .fil73 {fill:#EDD39F}
    .fil181 {fill:#EBDBBB}
    .fil234 {fill:#F0D9AF}
    .fil235 {fill:#F0D9AE}
    .fil236 {fill:#F0D9AD}
    .fil237 {fill:#EFD8AC}
    .fil238 {fill:#EFD8AA}
    .fil239 {fill:#EFD7A9}
    .fil74 {fill:#EBD19B}
    .fil180 {fill:#E9D8B8}
    .fil240 {fill:#EED6A9}
    .fil179 {fill:#E8D7B5}
    .fil241 {fill:#EED5A6}
    .fil75 {fill:#E8CF98}
    .fil178 {fill:#E7D5B2}
    .fil242 {fill:#EDD3A1}
    .fil76 {fill:#E7CD96}
    .fil243 {fill:#ECD19E}
    .fil177 {fill:#E5D3AF}
    .fil77 {fill:#E5CA92}
    .fil176 {fill:#E4D1AC}
    .fil244 {fill:#EACF99}
    .fil175 {fill:#E2D0A9}
    .fil78 {fill:#E3C88F}
    .fil245 {fill:#E9CD96}
    .fil79 {fill:#E1C68C}
    .fil246 {fill:#E8CB91}
    .fil174 {fill:#E0CDA6}
    .fil173 {fill:#DFCBA3}
    .fil80 {fill:#DFC489}
    .fil247 {fill:#E7C98E}
    .fil248 {fill:#E6C789}
    .fil172 {fill:#DDCAA0}
    .fil81 {fill:#DEC287}
    .fil249 {fill:#E5C586}
    .fil171 {fill:#DCC89E}
    .fil170 {fill:#DBC69B}
    .fil82 {fill:#DBC084}
    .fil250 {fill:#E4C281}
    .fil83 {fill:#DABE81}
    .fil251 {fill:#E3C07D}
    .fil169 {fill:#D9C498}
    .fil252 {fill:#E2BF79}
    .fil168 {fill:#D8C395}
    .fil84 {fill:#D8BB7E}
    .fil167 {fill:#D6C092}
    .fil253 {fill:#E0BD75}
    .fil85 {fill:#D6BA7B}
    .fil254 {fill:#DFBB71}
    .fil166 {fill:#D4BE8F}
    .fil86 {fill:#D5B878}
    .fil165 {fill:#D4BD8D}
    .fil87 {fill:#D3B575}
    .fil164 {fill:#D2BB8A}
    .fil163 {fill:#D1B987}
    .fil88 {fill:#D1B372}
    .fil162 {fill:#CFB885}
    .fil89 {fill:#CFB16F}
    .fil161 {fill:#CDB582}
    .fil90 {fill:#CEB06D}
    .fil160 {fill:#CDB47F}
    .fil159 {fill:#CBB27C}
    .fil91 {fill:#CCAD6A}
    .fil158 {fill:#CAB07A}
    .fil92 {fill:#CAAB68}
    .fil157 {fill:#C8AF77}
    .fil93 {fill:#C8A965}
    .fil156 {fill:#C6AD74}
    .fil94 {fill:#C6A763}
    .fil155 {fill:#C6AC72}
    .fil154 {fill:#C4AA6F}
    .fil95 {fill:#C5A660}
    .fil153 {fill:#C2A86C}
    .fil96 {fill:#C3A45E}
    .fil152 {fill:#C2A66A}
    .fil97 {fill:#C1A25B}
    .fil151 {fill:#C0A567}
    .fil98 {fill:#BFA058}
    .fil150 {fill:#BFA365}
    .fil149 {fill:#BDA262}
    .fil99 {fill:#BE9E56}
    .fil148 {fill:#BCA060}
    .fil100 {fill:#BC9C54}
    .fil147 {fill:#BA9E5D}
    .fil101 {fill:#BA9A51}
    .fil146 {fill:#B99C5B}
    .fil102 {fill:#B8984F}
    .fil145 {fill:#B89A58}
    .fil144 {fill:#B69956}
    .fil103 {fill:#B6964D}
    .fil143 {fill:#B59754}
    .fil104 {fill:#B6944A}
    .fil142 {fill:#B49652}
    .fil105 {fill:#B49348}
    .fil141 {fill:#B2944F}
    .fil140 {fill:#B1924D}
    .fil106 {fill:#B29146}
    .fil107 {fill:#B08F44}
    .fil139 {fill:#B0914B}
    .fil138 {fill:#AE8F48}
    .fil108 {fill:#AF8D42}
    .fil137 {fill:#AD8E47}
    .fil109 {fill:#AD8B40}
    .fil136 {fill:#AC8C44}
    .fil110 {fill:#AB893E}
    .fil135 {fill:#AA8A42}
    .fil111 {fill:#AA883C}
    .fil134 {fill:#A98940}
    .fil133 {fill:#A8873E}
    .fil112 {fill:#A8863A}
    .fil132 {fill:#A7863D}
    .fil113 {fill:#A68438}
    .fil131 {fill:#A5853B}
    .fil114 {fill:#A58337}
    .fil130 {fill:#A48339}
    .fil115 {fill:#A38135}
    .fil129 {fill:#A28237}
    .fil128 {fill:#A18035}
    .fil116 {fill:#A17F33}
    .fil127 {fill:#A07F34}
    .fil117 {fill:#A07D31}
    .fil126 {fill:#9F7D32}
    .fil118 {fill:#9F7C30}
    .fil125 {fill:#9D7C30}
    .fil124 {fill:#9D7A2F}
    .fil119 {fill:#9D7A2E}
    .fil123 {fill:#9B792D}
    .fil120 {fill:#9B792D}
    .fil122 {fill:#99772C}
    .fil121 {fill:#99772B}
    .fil255 {fill:#EDC174}
    .fil256 {fill:url(#id6)}
   ]]>
  </style>
   <clipPath id="id0">
    <rect x="11304.67" y="6930.04" width="7098.15" height="7131.24"/>
   </clipPath>
   <clipPath id="id1">
    <rect x="11875.62" y="8546.66" width="5956.26" height="3414.41"/>
   </clipPath>
   <clipPath id="id2">
    <rect x="12806.26" y="9447.49" width="4094.97" height="1609.63"/>
   </clipPath>
    <clipPath id="id3">
     <path d="M13764.97 10348.41c0,49.38 -8.59,129.09 10.56,173.72l144.37 -13.57 0 387.73 222.25 -0.09 -0.03 -808.13 769.48 0.29 -0.35 212.15c-114.09,6.25 -240.49,1.38 -354.96,1.35 -115.26,-0.06 -251.18,-23.62 -242.13,116.99 5.66,87.23 102.16,168.38 158.21,197.45 39.78,20.6 100.9,33.76 146.27,9.48 50.51,-26.99 46.52,-88.79 46.55,-141.54l246.18 -3.57 0.23 415.62 222.26 -0.09 0 -808.13 780.8 0 -1.29 159.17c-235.48,0 -520.14,-23.42 -585.81,183.48 -68.06,214.39 167.8,424.46 262.65,491.06 53.71,-34.57 116.35,-97.48 138.25,-139.11 -54.91,-52.29 -212.79,-145.14 -187.76,-266.07 24.6,-118.72 248.88,-92.51 369.56,-89.6l3.81 469.29 222.08 -0.09 0 -808.13 252.51 0.81 -0.03 807.41 222.28 -0.09 0 -808.13 153.78 -0.2 -0.2 -175.21 -2944.61 -0.46 -0.5 174.15 100.54 3.65 -0.11 232.52c-57.63,21.28 -92.43,22.93 -154.84,25.89zm-19.43 247.5c5.42,-66.7 -15.13,-62.86 29.99,-73.78 -19.15,-44.51 -10.56,-124.43 -10.56,-173.72l-104.82 -4.98c-14.51,-6.28 -9.74,-10.69 1.81,-25.35 3.02,-6.48 32.78,-39.04 51.36,-83.54 21.2,-50.71 31.72,-133.47 1.94,-180.52 -118.61,-219.69 -333.42,-176.85 -552.71,-93.59 13.28,48.31 35.29,125.57 64.4,159.3 61,-18.58 211.82,-88.61 268.84,-15.47 33.03,42.35 4.48,93.89 -21.05,112.99 -39.43,29.5 -86.04,19.45 -126.81,36.76l11.14 163.98 129.62 -7.15c41.95,70.03 51.18,101.35 25.94,188.98 -105.94,49.32 -208.36,-12.87 -259.57,-83.37 -65.95,-90.74 -116.11,-220.84 -134.17,-239.77l-178.08 70.52c26.06,114.92 161.64,328.22 287.66,400.7 78.27,45.02 184.06,64.79 289.7,52.51 74.99,-8.72 126.32,-31.42 170.43,-80.11 47.64,-49.52 49.13,-52.72 54.94,-124.39zm1215.57 -1007.4c-4.66,2.28 -41.65,7.64 -61.67,57.42 -43.88,109.15 62.17,200.5 161.49,158.5 137.98,-58.31 52.64,-290.01 -99.82,-215.92z"/>
    </clipPath>
   <mask id="id4">
  <linearGradient id="id5" gradientUnits="userSpaceOnUse" x1="15063.86" y1="10550.13" x2="18842.56" y2="10439.23">
   <stop offset="0" style="stop-opacity:1; stop-color:white"/>
   <stop offset="1" style="stop-opacity:0; stop-color:white"/>
  </linearGradient>
    <rect style="fill:url(#id5)" x="11500.7" y="7052.96" width="6706.09" height="6862.99"/>
   </mask>
  <linearGradient id="id6" gradientUnits="userSpaceOnUse" x1="13011.65" y1="6176.78" x2="13587.07" y2="13005.42">
   <stop offset="0" style="stop-opacity:1; stop-color:#705216"/>
   <stop offset="0.0784314" style="stop-opacity:1; stop-color:#A07F3D"/>
   <stop offset="0.231373" style="stop-opacity:1; stop-color:#FFE6B5"/>
   <stop offset="0.388235" style="stop-opacity:1; stop-color:#BDA066"/>
   <stop offset="0.560784" style="stop-opacity:1; stop-color:#F2E9D7"/>
   <stop offset="0.74902" style="stop-opacity:1; stop-color:#BDA066"/>
   <stop offset="0.839216" style="stop-opacity:1; stop-color:#C5AB77"/>
   <stop offset="1" style="stop-opacity:1; stop-color:#CCB586"/>
  </linearGradient>
 </defs>
 <g id="Layer_x0020_1">
  <metadata id="CorelCorpID_0Corel-Layer"/>
  <g style="clip-path:url(#id0)">
   <image x="11304.67" y="6930.03" width="7098.17" height="7131.25" xlink:href="Ananta glow logo_Images\Ananta glow logo_ImgID1.png"/>
  </g>
  <g style="clip-path:url(#id1)">
   <image x="11875.62" y="8546.64" width="5956.28" height="3414.43" xlink:href="Ananta glow logo_Images\Ananta glow logo_ImgID2.png"/>
  </g>
  <g style="clip-path:url(#id2)">
   <image x="12806.26" y="9447.48" width="4094.99" height="1609.64" xlink:href="Ananta glow logo_Images\Ananta glow logo_ImgID3.png"/>
  </g>
  <g>
   <g style="clip-path:url(#id3)">
    <polygon class="fil0" points="14471.57,9102.3 19055.22,7349.69 19160.18,7375.93 "/>
    <polygon id="1" class="fil1" points="14471.57,9102.3 19142.69,7371.56 19229.27,7393.75 "/>
    <polygon id="2" class="fil2" points="14471.57,9102.3 19211.96,7389.31 19297.64,7411.83 "/>
    <polygon id="3" class="fil3" points="14471.57,9102.3 19280.5,7407.33 19365.28,7430.17 "/>
    <polygon id="4" class="fil4" points="14471.57,9102.3 19348.32,7425.6 19432.17,7448.76 "/>
    <polygon id="5" class="fil5" points="14471.57,9102.3 19415.4,7444.13 19498.31,7467.6 "/>
    <polygon id="6" class="fil6" points="14471.57,9102.3 19481.73,7462.91 19563.69,7486.69 "/>
    <polygon id="7" class="fil7" points="14471.57,9102.3 19547.29,7481.93 19628.29,7506.03 "/>
    <polygon id="8" class="fil8" points="14471.57,9102.3 19612.09,7501.21 19692.11,7525.6 "/>
    <polygon id="9" class="fil9" points="14471.57,9102.3 19676.11,7520.72 19755.14,7545.42 "/>
    <polygon id="10" class="fil10" points="14471.57,9102.3 19739.33,7540.48 19817.37,7565.47 "/>
    <polygon id="11" class="fil11" points="14471.57,9102.3 19801.76,7560.47 19878.78,7585.76 "/>
    <polygon id="12" class="fil12" points="14471.57,9102.3 19863.38,7580.7 19939.38,7606.28 "/>
    <polygon id="13" class="fil13" points="14471.57,9102.3 19924.18,7601.16 19999.14,7627.02 "/>
    <polygon id="14" class="fil14" points="14471.57,9102.3 19984.15,7621.85 20058.07,7647.99 "/>
    <polygon id="15" class="fil15" points="14471.57,9102.3 20043.28,7642.76 20116.14,7669.18 "/>
    <polygon id="16" class="fil16" points="14471.57,9102.3 20101.57,7663.89 20173.37,7690.58 "/>
    <polygon id="17" class="fil17" points="14471.57,9102.3 20159.01,7685.24 20229.72,7712.2 "/>
    <polygon id="18" class="fil18" points="14471.57,9102.3 20215.58,7706.81 20285.2,7734.03 "/>
    <polygon id="19" class="fil19" points="14471.57,9102.3 20271.28,7728.59 20339.8,7756.07 "/>
    <polygon id="20" class="fil20" points="14471.57,9102.3 20326.1,7750.57 20393.51,7778.31 "/>
    <polygon id="21" class="fil21" points="14471.57,9102.3 20380.03,7772.77 20446.32,7800.76 "/>
    <polygon id="22" class="fil22" points="14471.57,9102.3 20433.06,7795.16 20498.22,7823.4 "/>
    <polygon id="23" class="fil23" points="14471.57,9102.3 20485.19,7817.75 20549.21,7846.23 "/>
    <polygon id="24" class="fil24" points="14471.57,9102.3 20536.41,7840.54 20599.28,7869.26 "/>
    <polygon id="25" class="fil25" points="14471.57,9102.3 20586.7,7863.52 20648.41,7892.47 "/>
    <polygon id="26" class="fil26" points="14471.57,9102.3 20636.07,7886.68 20696.61,7915.87 "/>
    <polygon id="27" class="fil27" points="14471.57,9102.3 20684.5,7910.03 20743.86,7939.45 "/>
    <polygon id="28" class="fil28" points="14471.57,9102.3 20731.99,7933.57 20790.17,7963.2 "/>
    <polygon id="29" class="fil29" points="14471.57,9102.3 20778.53,7957.27 20835.51,7987.13 "/>
    <polygon id="30" class="fil30" points="14471.57,9102.3 20824.11,7981.16 20879.88,8011.22 "/>
    <polygon id="31" class="fil31" points="14471.57,9102.3 20868.73,8005.21 20923.29,8035.49 "/>
    <polygon id="32" class="fil32" points="14471.57,9102.3 20912.38,8029.43 20965.71,8059.91 "/>
    <polygon id="33" class="fil33" points="14471.57,9102.3 20955.05,8053.81 21007.15,8084.49 "/>
    <polygon id="34" class="fil34" points="14471.57,9102.3 20996.73,8078.36 21047.6,8109.23 "/>
    <polygon id="35" class="fil35" points="14471.57,9102.3 21037.42,8103.05 21087.05,8134.11 "/>
    <polygon id="36" class="fil36" points="14471.57,9102.3 21077.12,8127.9 21125.49,8159.15 "/>
    <polygon id="37" class="fil37" points="14471.57,9102.3 21115.82,8152.9 21162.93,8184.32 "/>
    <polygon id="38" class="fil38" points="14471.57,9102.3 21153.5,8178.04 21199.35,8209.64 "/>
    <polygon id="39" class="fil39" points="14471.57,9102.3 21190.18,8203.32 21234.74,8235.09 "/>
    <polygon id="40" class="fil40" points="14471.57,9102.3 21225.83,8228.74 21269.11,8260.68 "/>
    <polygon id="41" class="fil41" points="14471.57,9102.3 21260.46,8254.29 21302.45,8286.39 "/>
    <polygon id="42" class="fil42" points="14471.57,9102.3 21294.05,8279.97 21334.76,8312.22 "/>
    <polygon id="43" class="fil43" points="14471.57,9102.3 21326.62,8305.77 21366.02,8338.18 "/>
    <polygon id="44" class="fil44" points="14471.57,9102.3 21358.14,8331.7 21396.23,8364.25 "/>
    <polygon id="45" class="fil45" points="14471.57,9102.3 21388.61,8357.74 21425.4,8390.43 "/>
    <polygon id="46" class="fil46" points="14471.57,9102.3 21418.04,8383.89 21453.51,8416.72 "/>
    <polygon id="47" class="fil47" points="14471.57,9102.3 21446.41,8410.15 21480.55,8443.12 "/>
    <polygon id="48" class="fil48" points="14471.57,9102.3 21473.73,8436.52 21506.54,8469.61 "/>
    <polygon id="49" class="fil49" points="14471.57,9102.3 21499.98,8462.99 21531.46,8496.2 "/>
    <polygon id="50" class="fil50" points="14471.57,9102.3 21525.16,8489.56 21555.3,8522.88 "/>
    <polygon id="51" class="fil51" points="14471.57,9102.3 21549.27,8516.22 21578.07,8549.66 "/>
    <polygon id="52" class="fil52" points="14471.57,9102.3 21572.31,8542.97 21599.76,8576.51 "/>
    <polygon id="53" class="fil53" points="14471.57,9102.3 21594.27,8569.8 21620.37,8603.45 "/>
    <polygon id="54" class="fil54" points="14471.57,9102.3 21615.15,8596.72 21639.9,8630.46 "/>
    <polygon id="55" class="fil55" points="14471.57,9102.3 21634.95,8623.71 21658.33,8657.54 "/>
    <polygon id="56" class="fil56" points="14471.57,9102.3 21653.66,8650.77 21675.68,8684.69 "/>
    <polygon id="57" class="fil57" points="14471.57,9102.3 21671.28,8677.9 21691.93,8711.9 "/>
    <polygon id="58" class="fil58" points="14471.57,9102.3 21687.8,8705.1 21707.09,8739.17 "/>
    <polygon id="59" class="fil59" points="14471.57,9102.3 21703.23,8732.36 21721.15,8766.5 "/>
    <polygon id="60" class="fil60" points="14471.57,9102.3 21717.56,8759.67 21734.11,8793.88 "/>
    <polygon id="61" class="fil61" points="14471.57,9102.3 21730.8,8787.04 21745.96,8821.3 "/>
    <polygon id="62" class="fil62" points="14471.57,9102.3 21742.93,8814.45 21756.71,8848.77 "/>
    <polygon id="63" class="fil63" points="14471.57,9102.3 21753.96,8841.91 21766.36,8876.28 "/>
    <polygon id="64" class="fil64" points="14471.57,9102.3 21763.88,8869.4 21774.9,8903.82 "/>
    <polygon id="65" class="fil65" points="14471.57,9102.3 21772.69,8896.93 21782.33,8931.39 "/>
    <polygon id="66" class="fil66" points="14471.57,9102.3 21780.4,8924.5 21788.65,8958.98 "/>
    <polygon id="67" class="fil67" points="14471.57,9102.3 21787,8952.09 21793.86,8986.6 "/>
    <polygon id="68" class="fil68" points="14471.57,9102.3 21792.49,8979.7 21797.96,9014.24 "/>
    <polygon id="69" class="fil69" points="14471.57,9102.3 21796.86,9007.33 21800.94,9041.89 "/>
    <polygon id="70" class="fil70" points="14471.57,9102.3 21800.13,9034.98 21802.82,9069.55 "/>
    <polygon id="71" class="fil71" points="14471.57,9102.3 21802.28,9062.63 21803.58,9097.21 "/>
    <polygon id="72" class="fil72" points="14471.57,9102.3 21803.32,9090.29 21803.23,9124.87 "/>
    <polygon id="73" class="fil73" points="14471.57,9102.3 21803.25,9117.96 21801.76,9152.53 "/>
    <polygon id="74" class="fil74" points="14471.57,9102.3 21802.06,9145.62 21799.19,9180.19 "/>
    <polygon id="75" class="fil75" points="14471.57,9102.3 21799.76,9173.27 21795.5,9207.83 "/>
    <polygon id="76" class="fil76" points="14471.57,9102.3 21796.35,9200.92 21790.7,9235.45 "/>
    <polygon id="77" class="fil77" points="14471.57,9102.3 21791.83,9228.55 21784.78,9263.06 "/>
    <polygon id="78" class="fil78" points="14471.57,9102.3 21786.19,9256.16 21777.76,9290.64 "/>
    <polygon id="79" class="fil79" points="14471.57,9102.3 21779.45,9283.74 21769.63,9318.19 "/>
    <polygon id="80" class="fil80" points="14471.57,9102.3 21771.6,9311.3 21760.39,9345.71 "/>
    <polygon id="81" class="fil81" points="14471.57,9102.3 21762.63,9338.83 21750.05,9373.19 "/>
    <polygon id="82" class="fil82" points="14471.57,9102.3 21752.57,9366.32 21738.6,9400.63 "/>
    <polygon id="83" class="fil83" points="14471.57,9102.3 21741.39,9393.77 21726.05,9428.03 "/>
    <polygon id="84" class="fil84" points="14471.57,9102.3 21729.12,9421.18 21712.39,9455.38 "/>
    <polygon id="85" class="fil85" points="14471.57,9102.3 21715.74,9448.54 21697.64,9482.67 "/>
    <polygon id="86" class="fil86" points="14471.57,9102.3 21701.26,9475.84 21681.79,9509.9 "/>
    <polygon id="87" class="fil87" points="14471.57,9102.3 21685.69,9503.09 21664.85,9537.08 "/>
    <polygon id="88" class="fil88" points="14471.57,9102.3 21669.02,9530.28 21646.81,9564.18 "/>
    <polygon id="89" class="fil89" points="14471.57,9102.3 21651.26,9557.4 21627.69,9591.22 "/>
    <polygon id="90" class="fil90" points="14471.57,9102.3 21632.4,9584.46 21607.48,9618.18 "/>
    <polygon id="91" class="fil91" points="14471.57,9102.3 21612.47,9611.44 21586.19,9645.07 "/>
    <polygon id="92" class="fil92" points="14471.57,9102.3 21591.44,9638.34 21563.81,9671.87 "/>
    <polygon id="93" class="fil93" points="14471.57,9102.3 21569.34,9665.17 21540.36,9698.59 "/>
    <polygon id="94" class="fil94" points="14471.57,9102.3 21546.16,9691.9 21515.84,9725.21 "/>
    <polygon id="95" class="fil95" points="14471.57,9102.3 21521.9,9718.55 21490.25,9751.74 "/>
    <polygon id="96" class="fil96" points="14471.57,9102.3 21496.58,9745.1 21463.59,9778.18 "/>
    <polygon id="97" class="fil97" points="14471.57,9102.3 21470.19,9771.56 21435.87,9804.51 "/>
    <polygon id="98" class="fil98" points="14471.57,9102.3 21442.74,9797.92 21407.1,9830.73 "/>
    <polygon id="99" class="fil99" points="14471.57,9102.3 21414.23,9824.17 21377.27,9856.84 "/>
    <polygon id="100" class="fil100" points="14471.57,9102.3 21384.66,9850.31 21346.39,9882.84 "/>
    <polygon id="101" class="fil101" points="14471.57,9102.3 21354.05,9876.33 21314.47,9908.72 "/>
    <polygon id="102" class="fil102" points="14471.57,9102.3 21322.39,9902.24 21281.51,9934.48 "/>
    <polygon id="103" class="fil103" points="14471.57,9102.3 21289.69,9928.03 21247.52,9960.11 "/>
    <polygon id="104" class="fil104" points="14471.57,9102.3 21255.96,9953.69 21212.5,9985.61 "/>
    <polygon id="105" class="fil105" points="14471.57,9102.3 21221.19,9979.22 21176.46,10010.97 "/>
    <polygon id="106" class="fil106" points="14471.57,9102.3 21185.41,10004.62 21139.4,10036.2 "/>
    <polygon id="107" class="fil107" points="14471.57,9102.3 21148.6,10029.89 21101.32,10061.29 "/>
    <polygon id="108" class="fil108" points="14471.57,9102.3 21110.78,10055.01 21062.24,10086.23 "/>
    <polygon id="109" class="fil109" points="14471.57,9102.3 21071.95,10079.99 21022.16,10111.02 "/>
    <polygon id="110" class="fil110" points="14471.57,9102.3 21032.12,10104.82 20981.09,10135.66 "/>
    <polygon id="111" class="fil111" points="14471.57,9102.3 20991.3,10129.49 20939.03,10160.14 "/>
    <polygon id="112" class="fil112" points="14471.57,9102.3 20949.48,10154.01 20895.98,10184.47 "/>
    <polygon id="113" class="fil113" points="14471.57,9102.3 20906.68,10178.37 20851.97,10208.62 "/>
    <polygon id="114" class="fil114" points="14471.57,9102.3 20862.91,10202.57 20806.98,10232.61 "/>
    <polygon id="115" class="fil115" points="14471.57,9102.3 20818.16,10226.6 20761.03,10256.43 "/>
    <polygon id="116" class="fil116" points="14471.57,9102.3 20772.46,10250.46 20714.13,10280.07 "/>
    <polygon id="117" class="fil117" points="14471.57,9102.3 20725.79,10274.15 20666.27,10303.54 "/>
    <polygon id="118" class="fil118" points="14471.57,9102.3 20678.18,10297.66 20617.48,10326.82 "/>
    <polygon id="119" class="fil119" points="14471.57,9102.3 20629.62,10320.99 20567.76,10349.91 "/>
    <polygon id="120" class="fil120" points="14471.57,9102.3 20580.13,10344.13 20517.11,10372.82 "/>
    <polygon id="121" class="fil121" points="14471.57,9102.3 20529.71,10367.08 20465.54,10395.53 "/>
    <polygon id="122" class="fil122" points="14471.57,9102.3 20478.38,10389.84 20413.07,10418.05 "/>
    <polygon id="123" class="fil123" points="14471.57,9102.3 20426.13,10412.41 20359.69,10440.37 "/>
    <polygon id="124" class="fil124" points="14471.57,9102.3 20372.98,10434.78 20305.42,10462.48 "/>
    <polygon id="125" class="fil125" points="14471.57,9102.3 20318.93,10456.94 20250.26,10484.39 "/>
    <polygon id="126" class="fil126" points="14471.57,9102.3 20263.99,10478.9 20194.22,10506.09 "/>
    <polygon id="127" class="fil127" points="14471.57,9102.3 20208.18,10500.65 20137.32,10527.57 "/>
    <polygon id="128" class="fil128" points="14471.57,9102.3 20151.49,10522.19 20079.56,10548.84 "/>
    <polygon id="129" class="fil129" points="14471.57,9102.3 20093.94,10543.51 20020.94,10569.89 "/>
    <polygon id="130" class="fil130" points="14471.57,9102.3 20035.54,10564.61 19961.49,10590.72 "/>
    <polygon id="131" class="fil131" points="14471.57,9102.3 19976.3,10585.5 19901.2,10611.32 "/>
    <polygon id="132" class="fil132" points="14471.57,9102.3 19916.22,10606.15 19840.08,10631.69 "/>
    <polygon id="133" class="fil133" points="14471.57,9102.3 19855.31,10626.58 19778.15,10651.83 "/>
    <polygon id="134" class="fil134" points="14471.57,9102.3 19793.58,10646.78 19715.42,10671.73 "/>
    <polygon id="135" class="fil135" points="14471.57,9102.3 19731.05,10666.74 19651.89,10691.4 "/>
    <polygon id="136" class="fil136" points="14471.57,9102.3 19667.72,10686.47 19587.57,10710.82 "/>
    <polygon id="137" class="fil137" points="14471.57,9102.3 19603.6,10705.95 19522.48,10730 "/>
    <polygon id="138" class="fil138" points="14471.57,9102.3 19538.7,10725.19 19456.62,10748.94 "/>
    <polygon id="139" class="fil139" points="14471.57,9102.3 19473.04,10744.19 19390,10767.62 "/>
    <polygon id="140" class="fil140" points="14471.57,9102.3 19406.61,10762.93 19322.64,10786.05 "/>
    <polygon id="141" class="fil141" points="14471.57,9102.3 19339.43,10781.43 19254.54,10804.23 "/>
    <polygon id="142" class="fil142" points="14471.57,9102.3 19271.52,10799.67 19185.71,10822.14 "/>
    <polygon id="143" class="fil143" points="14471.57,9102.3 19202.88,10817.65 19116.17,10839.8 "/>
    <polygon id="144" class="fil144" points="14471.57,9102.3 19133.52,10835.37 19045.93,10857.19 "/>
    <polygon id="145" class="fil145" points="14471.57,9102.3 19063.45,10852.83 18974.99,10874.32 "/>
    <polygon id="146" class="fil146" points="14471.57,9102.3 18992.68,10870.02 18903.37,10891.18 "/>
    <polygon id="147" class="fil147" points="14471.57,9102.3 18921.23,10886.94 18831.07,10907.76 "/>
    <polygon id="148" class="fil148" points="14471.57,9102.3 18849.1,10903.6 18758.11,10924.07 "/>
    <polygon id="149" class="fil149" points="14471.57,9102.3 18776.31,10919.98 18684.5,10940.11 "/>
    <polygon id="150" class="fil150" points="14471.57,9102.3 18702.87,10936.08 18610.26,10955.86 "/>
    <polygon id="151" class="fil151" points="14471.57,9102.3 18628.78,10951.91 18535.38,10971.34 "/>
    <polygon id="152" class="fil152" points="14471.57,9102.3 18554.06,10967.45 18459.89,10986.53 "/>
    <polygon id="153" class="fil153" points="14471.57,9102.3 18478.72,10982.71 18383.79,11001.43 "/>
    <polygon id="154" class="fil154" points="14471.57,9102.3 18402.78,10997.69 18307.1,11016.05 "/>
    <polygon id="155" class="fil155" points="14471.57,9102.3 18326.23,11012.38 18229.82,11030.38 "/>
    <polygon id="156" class="fil156" points="14471.57,9102.3 18249.11,11026.78 18151.98,11044.41 "/>
    <polygon id="157" class="fil157" points="14471.57,9102.3 18171.4,11040.88 18073.58,11058.15 "/>
    <polygon id="158" class="fil158" points="14471.57,9102.3 18093.14,11054.7 17994.63,11071.59 "/>
    <polygon id="159" class="fil159" points="14471.57,9102.3 18014.33,11068.21 17915.14,11084.73 "/>
    <polygon id="160" class="fil160" points="14471.57,9102.3 17934.98,11081.43 17835.13,11097.58 "/>
    <polygon id="161" class="fil161" points="14471.57,9102.3 17855.1,11094.35 17754.62,11110.12 "/>
    <polygon id="162" class="fil162" points="14471.57,9102.3 17774.71,11106.96 17673.6,11122.35 "/>
    <polygon id="163" class="fil163" points="14471.57,9102.3 17693.82,11119.27 17592.1,11134.28 "/>
    <polygon id="164" class="fil164" points="14471.57,9102.3 17612.44,11131.28 17510.12,11145.9 "/>
    <polygon id="165" class="fil165" points="14471.57,9102.3 17530.59,11142.97 17427.69,11157.21 "/>
    <polygon id="166" class="fil166" points="14471.57,9102.3 17448.27,11154.36 17344.8,11168.21 "/>
    <polygon id="167" class="fil167" points="14471.57,9102.3 17365.49,11165.44 17261.48,11178.89 "/>
    <polygon id="168" class="fil168" points="14471.57,9102.3 17282.28,11176.2 17177.73,11189.26 "/>
    <polygon id="169" class="fil169" points="14471.57,9102.3 17198.64,11186.65 17093.58,11199.31 "/>
    <polygon id="170" class="fil170" points="14471.57,9102.3 17114.59,11196.78 17009.02,11209.04 "/>
    <polygon id="171" class="fil171" points="14471.57,9102.3 17030.14,11206.59 16924.08,11218.46 "/>
    <polygon id="172" class="fil172" points="14471.57,9102.3 16945.3,11216.08 16838.77,11227.55 "/>
    <polygon id="173" class="fil173" points="14471.57,9102.3 16860.08,11225.26 16753.1,11236.32 "/>
    <polygon id="174" class="fil174" points="14471.57,9102.3 16774.5,11234.11 16667.09,11244.77 "/>
    <polygon id="175" class="fil175" points="14471.57,9102.3 16688.57,11242.63 16580.74,11252.89 "/>
    <polygon id="176" class="fil176" points="14471.57,9102.3 16602.3,11250.84 16494.07,11260.68 "/>
    <polygon id="177" class="fil177" points="14471.57,9102.3 16515.71,11258.71 16407.09,11268.15 "/>
    <polygon id="178" class="fil178" points="14471.57,9102.3 16428.81,11266.26 16319.82,11275.29 "/>
    <polygon id="179" class="fil179" points="14471.57,9102.3 16341.62,11273.48 16232.27,11282.1 "/>
    <polygon id="180" class="fil180" points="14471.57,9102.3 16254.14,11280.37 16144.45,11288.57 "/>
    <polygon id="181" class="fil181" points="14471.57,9102.3 16166.39,11286.93 16056.38,11294.72 "/>
    <polygon id="182" class="fil182" points="14471.57,9102.3 16078.38,11293.16 15968.06,11300.53 "/>
    <polygon id="183" class="fil183" points="14471.57,9102.3 15990.13,11299.06 15879.52,11306.01 "/>
    <polygon id="184" class="fil184" points="14471.57,9102.3 15901.64,11304.62 15790.77,11311.16 "/>
    <polygon id="185" class="fil185" points="14471.57,9102.3 15812.94,11309.85 15701.81,11315.97 "/>
    <polygon id="186" class="fil186" points="14471.57,9102.3 15724.04,11314.74 15612.67,11320.44 "/>
    <polygon id="187" class="fil187" points="14471.57,9102.3 15634.95,11319.3 15523.36,11324.58 "/>
    <polygon id="188" class="fil188" points="14471.57,9102.3 15545.68,11323.52 15433.89,11328.38 "/>
    <polygon id="189" class="fil189" points="14471.57,9102.3 15456.24,11327.41 15344.27,11331.84 "/>
    <polygon id="190" class="fil190" points="14471.57,9102.3 15366.66,11330.95 15254.51,11334.96 "/>
    <polygon id="191" class="fil191" points="14471.57,9102.3 15276.94,11334.16 15164.64,11337.75 "/>
    <polygon id="192" class="fil192" points="14471.57,9102.3 15187.1,11337.03 15074.67,11340.19 "/>
    <polygon id="193" class="fil193" points="14471.57,9102.3 15097.15,11339.56 14984.6,11342.3 "/>
    <polygon id="194" class="fil194" points="14471.57,9102.3 15007.11,11341.75 14894.45,11344.06 "/>
    <polygon id="195" class="fil195" points="14471.57,9102.3 14916.99,11343.6 14804.24,11345.49 "/>
    <polygon id="196" class="fil196" points="14471.57,9102.3 14826.79,11345.11 14713.98,11346.58 "/>
    <polygon id="197" class="fil197" points="14471.57,9102.3 14736.55,11346.28 14623.69,11347.32 "/>
    <polygon id="198" class="fil198" points="14471.57,9102.3 14646.26,11347.11 14533.37,11347.72 "/>
    <polygon id="199" class="fil199" points="14471.57,9102.3 14555.94,11347.6 14443.04,11347.79 "/>
    <polygon id="200" class="fil200" points="14471.57,9102.3 14465.62,11347.75 14352.71,11347.51 "/>
    <polygon id="201" class="fil201" points="14471.57,9102.3 14375.29,11347.56 14262.4,11346.89 "/>
    <polygon id="202" class="fil202" points="14471.57,9102.3 14284.98,11347.02 14172.13,11345.93 "/>
    <polygon id="203" class="fil203" points="14471.57,9102.3 14194.7,11346.15 14081.9,11344.63 "/>
    <polygon id="204" class="fil204" points="14471.57,9102.3 14104.46,11344.93 13991.73,11342.99 "/>
    <polygon id="205" class="fil205" points="14471.57,9102.3 14014.27,11343.38 13901.63,11341.01 "/>
    <polygon id="206" class="fil206" points="14471.57,9102.3 13924.16,11341.48 13811.62,11338.69 "/>
    <polygon id="207" class="fil207" points="14471.57,9102.3 13834.13,11339.25 13721.71,11336.03 "/>
    <polygon id="208" class="fil208" points="14471.57,9102.3 13744.19,11336.67 13631.91,11333.03 "/>
    <polygon id="209" class="fil209" points="14471.57,9102.3 13654.37,11333.76 13542.24,11329.69 "/>
    <polygon id="210" class="fil210" points="14471.57,9102.3 13564.66,11330.51 13452.71,11326.02 "/>
    <polygon id="211" class="fil211" points="14471.57,9102.3 13475.1,11326.91 13363.33,11322 "/>
    <polygon id="212" class="fil212" points="14471.57,9102.3 13385.69,11322.99 13274.13,11317.65 "/>
    <polygon id="213" class="fil213" points="14471.57,9102.3 13296.44,11318.72 13185.1,11312.97 "/>
    <polygon id="214" class="fil214" points="14471.57,9102.3 13207.37,11314.12 13096.27,11307.95 "/>
    <polygon id="215" class="fil215" points="14471.57,9102.3 13118.49,11309.18 13007.65,11302.59 "/>
    <polygon id="216" class="fil216" points="14471.57,9102.3 13029.82,11303.91 12919.26,11296.9 "/>
    <polygon id="217" class="fil217" points="14471.57,9102.3 12941.37,11298.3 12831.09,11290.88 "/>
    <polygon id="218" class="fil218" points="14471.57,9102.3 12853.15,11292.36 12743.18,11284.52 "/>
    <polygon id="219" class="fil219" points="14471.57,9102.3 12765.17,11286.09 12655.53,11277.83 "/>
    <polygon id="220" class="fil220" points="14471.57,9102.3 12677.46,11279.49 12568.15,11270.82 "/>
    <polygon id="221" class="fil221" points="14471.57,9102.3 12590.01,11272.55 12481.06,11263.47 "/>
    <polygon id="222" class="fil222" points="14471.57,9102.3 12502.86,11265.29 12394.28,11255.8 "/>
    <polygon id="223" class="fil223" points="14471.57,9102.3 12416,11257.69 12307.81,11247.8 "/>
    <polygon id="224" class="fil224" points="14471.57,9102.3 12329.45,11249.78 12221.67,11239.47 "/>
    <polygon id="225" class="fil225" points="14471.57,9102.3 12243.23,11241.53 12135.87,11230.82 "/>
    <polygon id="226" class="fil226" points="14471.57,9102.3 12157.34,11232.96 12050.43,11221.84 "/>
    <polygon id="227" class="fil227" points="14471.57,9102.3 12071.81,11224.07 11965.35,11212.55 "/>
    <polygon id="228" class="fil228" points="14471.57,9102.3 11986.64,11214.85 11880.65,11202.93 "/>
    <polygon id="229" class="fil229" points="14471.57,9102.3 11901.85,11205.32 11796.35,11193 "/>
    <polygon id="230" class="fil230" points="14471.57,9102.3 11817.45,11195.46 11712.45,11182.74 "/>
    <polygon id="231" class="fil231" points="14471.57,9102.3 11733.45,11185.29 11628.97,11172.18 "/>
    <polygon id="232" class="fil232" points="14471.57,9102.3 11649.87,11174.8 11545.92,11161.29 "/>
    <polygon id="233" class="fil233" points="14471.57,9102.3 11566.71,11164 11463.32,11150.1 "/>
    <polygon id="234" class="fil234" points="14471.57,9102.3 11484,11152.88 11381.17,11138.59 "/>
    <polygon id="235" class="fil235" points="14471.57,9102.3 11401.74,11141.45 11299.49,11126.78 "/>
    <polygon id="236" class="fil236" points="14471.57,9102.3 11319.94,11129.71 11218.3,11114.66 "/>
    <polygon id="237" class="fil237" points="14471.57,9102.3 11238.63,11117.67 11137.59,11102.23 "/>
    <polygon id="238" class="fil238" points="14471.57,9102.3 11157.8,11105.32 11057.4,11089.5 "/>
    <polygon id="239" class="fil239" points="14471.57,9102.3 11077.48,11092.66 10977.72,11076.47 "/>
    <polygon id="240" class="fil240" points="14471.57,9102.3 10997.67,11079.71 10898.57,11063.13 "/>
    <polygon id="241" class="fil241" points="14471.57,9102.3 10918.39,11066.45 10819.97,11049.51 "/>
    <polygon id="242" class="fil242" points="14471.57,9102.3 10839.65,11052.89 10741.91,11035.58 "/>
    <polygon id="243" class="fil243" points="14471.57,9102.3 10761.46,11039.04 10664.43,11021.36 "/>
    <polygon id="244" class="fil244" points="14471.57,9102.3 10683.84,11024.9 10587.52,11006.85 "/>
    <polygon id="245" class="fil245" points="14471.57,9102.3 10606.78,11010.46 10511.2,10992.05 "/>
    <polygon id="246" class="fil246" points="14471.57,9102.3 10530.32,10995.73 10435.49,10976.97 "/>
    <polygon id="247" class="fil247" points="14471.57,9102.3 10454.45,10980.72 10360.38,10961.6 "/>
    <polygon id="248" class="fil248" points="14471.57,9102.3 10379.2,10965.42 10285.9,10945.94 "/>
    <polygon id="249" class="fil249" points="14471.57,9102.3 10304.56,10949.84 10212.06,10930.01 "/>
    <polygon id="250" class="fil250" points="14471.57,9102.3 10230.56,10933.98 10138.86,10913.8 "/>
    <polygon id="251" class="fil251" points="14471.57,9102.3 10157.2,10917.84 10066.32,10897.32 "/>
    <polygon id="252" class="fil252" points="14471.57,9102.3 10084.49,10901.42 9994.44,10880.56 "/>
    <polygon id="253" class="fil253" points="14471.57,9102.3 10012.45,10884.73 9923.25,10863.53 "/>
    <polygon id="254" class="fil254" points="14471.57,9102.3 9941.09,10867.77 9852.75,10846.24 "/>
    <polygon id="255" class="fil253" points="14471.57,9102.3 9870.42,10850.54 9782.95,10828.68 "/>
    <polygon id="256" class="fil252" points="14471.57,9102.3 9800.44,10833.05 9713.86,10810.86 "/>
    <polygon id="257" class="fil251" points="14471.57,9102.3 9731.17,10815.3 9645.49,10792.78 "/>
    <polygon id="258" class="fil250" points="14471.57,9102.3 9662.63,10797.28 9577.85,10774.44 "/>
    <polygon id="259" class="fil249" points="14471.57,9102.3 9594.81,10779.01 9510.96,10755.85 "/>
    <polygon id="260" class="fil248" points="14471.57,9102.3 9527.73,10760.48 9444.82,10737.01 "/>
    <polygon id="261" class="fil247" points="14471.57,9102.3 9461.4,10741.7 9379.45,10717.92 "/>
    <polygon id="262" class="fil246" points="14471.57,9102.3 9395.84,10722.67 9314.84,10698.58 "/>
    <polygon id="263" class="fil245" points="14471.57,9102.3 9331.04,10703.4 9251.02,10679 "/>
    <polygon id="264" class="fil244" points="14471.57,9102.3 9267.03,10683.88 9187.99,10659.19 "/>
    <polygon id="265" class="fil243" points="14471.57,9102.3 9203.8,10664.13 9125.76,10639.13 "/>
    <polygon id="266" class="fil242" points="14471.57,9102.3 9141.37,10644.13 9064.35,10618.85 "/>
    <polygon id="267" class="fil241" points="14471.57,9102.3 9079.75,10623.9 9003.76,10598.33 "/>
    <polygon id="268" class="fil240" points="14471.57,9102.3 9018.96,10603.45 8943.99,10577.59 "/>
    <polygon id="269" class="fil239" points="14471.57,9102.3 8958.98,10582.76 8885.06,10556.62 "/>
    <polygon id="270" class="fil238" points="14471.57,9102.3 8899.85,10561.85 8826.99,10535.43 "/>
    <polygon id="271" class="fil237" points="14471.57,9102.3 8841.56,10540.72 8769.77,10514.03 "/>
    <polygon id="272" class="fil236" points="14471.57,9102.3 8784.13,10519.36 8713.41,10492.41 "/>
    <polygon id="273" class="fil235" points="14471.57,9102.3 8727.55,10497.8 8657.93,10470.57 "/>
    <polygon id="274" class="fil234" points="14471.57,9102.3 8671.85,10476.02 8603.33,10448.54 "/>
    <polygon id="275" class="fil233" points="14471.57,9102.3 8617.03,10454.03 8549.62,10426.29 "/>
    <polygon id="276" class="fil232" points="14471.57,9102.3 8563.1,10431.84 8496.81,10403.85 "/>
    <polygon id="277" class="fil231" points="14471.57,9102.3 8510.07,10409.45 8444.91,10381.21 "/>
    <polygon id="278" class="fil230" points="14471.57,9102.3 8457.94,10386.86 8393.92,10358.37 "/>
    <polygon id="279" class="fil229" points="14471.57,9102.3 8406.72,10364.07 8343.85,10335.35 "/>
    <polygon id="280" class="fil228" points="14471.57,9102.3 8356.43,10341.09 8294.72,10312.13 "/>
    <polygon id="281" class="fil227" points="14471.57,9102.3 8307.06,10317.92 8246.52,10288.73 "/>
    <polygon id="282" class="fil226" points="14471.57,9102.3 8258.63,10294.57 8199.27,10265.16 "/>
    <polygon id="283" class="fil225" points="14471.57,9102.3 8211.14,10271.04 8152.97,10241.4 "/>
    <polygon id="284" class="fil224" points="14471.57,9102.3 8164.6,10247.33 8107.62,10217.48 "/>
    <polygon id="285" class="fil223" points="14471.57,9102.3 8119.02,10223.45 8063.25,10193.38 "/>
    <polygon id="286" class="fil222" points="14471.57,9102.3 8074.4,10199.4 8019.84,10169.12 "/>
    <polygon id="287" class="fil221" points="14471.57,9102.3 8030.75,10175.18 7977.42,10144.7 "/>
    <polygon id="288" class="fil220" points="14471.57,9102.3 7988.09,10150.79 7935.98,10120.12 "/>
    <polygon id="289" class="fil219" points="14471.57,9102.3 7946.4,10126.25 7895.53,10095.38 "/>
    <polygon id="290" class="fil218" points="14471.57,9102.3 7905.71,10101.55 7856.08,10070.49 "/>
    <polygon id="291" class="fil217" points="14471.57,9102.3 7866.01,10076.71 7817.64,10045.46 "/>
    <polygon id="292" class="fil216" points="14471.57,9102.3 7827.31,10051.71 7780.2,10020.28 "/>
    <polygon id="293" class="fil215" points="14471.57,9102.3 7789.63,10026.57 7743.79,9994.97 "/>
    <polygon id="294" class="fil214" points="14471.57,9102.3 7752.95,10001.29 7708.39,9969.51 "/>
    <polygon id="295" class="fil213" points="14471.57,9102.3 7717.3,9975.87 7674.02,9943.93 "/>
    <polygon id="296" class="fil212" points="14471.57,9102.3 7682.67,9950.32 7640.68,9918.22 "/>
    <polygon id="297" class="fil211" points="14471.57,9102.3 7649.08,9924.64 7608.37,9892.38 "/>
    <polygon id="298" class="fil210" points="14471.57,9102.3 7616.51,9898.84 7577.11,9866.43 "/>
    <polygon id="299" class="fil209" points="14471.57,9102.3 7584.99,9872.91 7546.9,9840.36 "/>
    <polygon id="300" class="fil208" points="14471.57,9102.3 7554.52,9846.87 7517.73,9814.18 "/>
    <polygon id="301" class="fil207" points="14471.57,9102.3 7525.09,9820.72 7489.63,9787.89 "/>
    <polygon id="302" class="fil206" points="14471.57,9102.3 7496.72,9794.45 7462.58,9761.49 "/>
    <polygon id="303" class="fil205" points="14471.57,9102.3 7469.41,9768.08 7436.59,9735 "/>
    <polygon id="304" class="fil204" points="14471.57,9102.3 7443.16,9741.61 7411.68,9708.4 "/>
    <polygon id="305" class="fil203" points="14471.57,9102.3 7417.97,9715.05 7387.83,9681.72 "/>
    <polygon id="306" class="fil202" points="14471.57,9102.3 7393.86,9688.39 7365.06,9654.95 "/>
    <polygon id="307" class="fil201" points="14471.57,9102.3 7370.82,9661.64 7343.37,9628.1 "/>
    <polygon id="308" class="fil200" points="14471.57,9102.3 7348.86,9634.8 7322.76,9601.16 "/>
    <polygon id="309" class="fil199" points="14471.57,9102.3 7327.98,9607.89 7303.23,9574.15 "/>
    <polygon id="310" class="fil198" points="14471.57,9102.3 7308.18,9580.9 7284.8,9547.07 "/>
    <polygon id="311" class="fil197" points="14471.57,9102.3 7289.47,9553.84 7267.45,9519.92 "/>
    <polygon id="312" class="fil196" points="14471.57,9102.3 7271.86,9526.7 7251.2,9492.71 "/>
    <polygon id="313" class="fil195" points="14471.57,9102.3 7255.33,9499.51 7236.04,9465.43 "/>
    <polygon id="314" class="fil194" points="14471.57,9102.3 7239.9,9472.25 7221.98,9438.11 "/>
    <polygon id="315" class="fil193" points="14471.57,9102.3 7225.57,9444.94 7209.03,9410.73 "/>
    <polygon id="316" class="fil192" points="14471.57,9102.3 7212.33,9417.57 7197.17,9383.3 "/>
    <polygon id="317" class="fil191" points="14471.57,9102.3 7200.2,9390.16 7186.42,9355.84 "/>
    <polygon id="318" class="fil190" points="14471.57,9102.3 7189.18,9362.7 7176.77,9328.33 "/>
    <polygon id="319" class="fil189" points="14471.57,9102.3 7179.25,9335.2 7168.23,9300.79 "/>
    <polygon id="320" class="fil188" points="14471.57,9102.3 7170.44,9307.67 7160.8,9273.22 "/>
    <polygon id="321" class="fil187" points="14471.57,9102.3 7162.73,9280.11 7154.48,9245.62 "/>
    <polygon id="322" class="fil186" points="14471.57,9102.3 7156.13,9252.52 7149.27,9218 "/>
    <polygon id="323" class="fil185" points="14471.57,9102.3 7150.65,9224.91 7145.17,9190.37 "/>
    <polygon id="324" class="fil184" points="14471.57,9102.3 7146.27,9197.28 7142.19,9162.72 "/>
    <polygon id="325" class="fil183" points="14471.57,9102.3 7143,9169.63 7140.31,9135.06 "/>
    <polygon id="326" class="fil182" points="14471.57,9102.3 7140.85,9141.98 7139.55,9107.4 "/>
    <polygon id="327" class="fil181" points="14471.57,9102.3 7139.81,9114.31 7139.9,9079.73 "/>
    <polygon id="328" class="fil180" points="14471.57,9102.3 7139.89,9086.65 7141.37,9052.07 "/>
    <polygon id="329" class="fil179" points="14471.57,9102.3 7141.07,9058.99 7143.95,9024.42 "/>
    <polygon id="330" class="fil178" points="14471.57,9102.3 7143.37,9031.33 7147.63,8996.78 "/>
    <polygon id="331" class="fil177" points="14471.57,9102.3 7146.78,9003.69 7152.44,8969.15 "/>
    <polygon id="332" class="fil176" points="14471.57,9102.3 7151.3,8976.06 7158.35,8941.55 "/>
    <polygon id="333" class="fil175" points="14471.57,9102.3 7156.94,8948.45 7165.37,8913.97 "/>
    <polygon id="334" class="fil174" points="14471.57,9102.3 7163.68,8920.86 7173.5,8886.42 "/>
    <polygon id="335" class="fil173" points="14471.57,9102.3 7171.54,8893.31 7182.74,8858.9 "/>
    <polygon id="336" class="fil172" points="14471.57,9102.3 7180.5,8865.78 7193.08,8831.41 "/>
    <polygon id="337" class="fil171" points="14471.57,9102.3 7190.56,8838.29 7204.53,8803.97 "/>
    <polygon id="338" class="fil170" points="14471.57,9102.3 7201.74,8810.84 7217.08,8776.58 "/>
    <polygon id="339" class="fil169" points="14471.57,9102.3 7214.01,8783.43 7230.74,8749.23 "/>
    <polygon id="340" class="fil168" points="14471.57,9102.3 7227.39,8756.07 7245.49,8721.94 "/>
    <polygon id="341" class="fil167" points="14471.57,9102.3 7241.87,8728.76 7261.34,8694.7 "/>
    <polygon id="342" class="fil166" points="14471.57,9102.3 7257.44,8701.52 7278.28,8667.53 "/>
    <polygon id="343" class="fil165" points="14471.57,9102.3 7274.11,8674.33 7296.32,8640.42 "/>
    <polygon id="344" class="fil164" points="14471.57,9102.3 7291.88,8647.2 7315.44,8613.39 "/>
    <polygon id="345" class="fil163" points="14471.57,9102.3 7310.73,8620.15 7335.65,8586.42 "/>
    <polygon id="346" class="fil162" points="14471.57,9102.3 7330.67,8593.17 7356.94,8559.54 "/>
    <polygon id="347" class="fil161" points="14471.57,9102.3 7351.69,8566.26 7379.32,8532.74 "/>
    <polygon id="348" class="fil160" points="14471.57,9102.3 7373.79,8539.44 7402.77,8506.02 "/>
    <polygon id="349" class="fil159" points="14471.57,9102.3 7396.97,8512.7 7427.29,8479.39 "/>
    <polygon id="350" class="fil158" points="14471.57,9102.3 7421.23,8486.06 7452.88,8452.86 "/>
    <polygon id="351" class="fil157" points="14471.57,9102.3 7446.55,8459.5 7479.54,8426.43 "/>
    <polygon id="352" class="fil156" points="14471.57,9102.3 7472.94,8433.05 7507.26,8400.1 "/>
    <polygon id="353" class="fil155" points="14471.57,9102.3 7500.39,8406.69 7536.03,8373.88 "/>
    <polygon id="354" class="fil154" points="14471.57,9102.3 7528.91,8380.44 7565.86,8347.77 "/>
    <polygon id="355" class="fil153" points="14471.57,9102.3 7558.47,8354.3 7596.74,8321.77 "/>
    <polygon id="356" class="fil152" points="14471.57,9102.3 7589.08,8328.27 7628.66,8295.89 "/>
    <polygon id="357" class="fil151" points="14471.57,9102.3 7620.74,8302.37 7661.62,8270.13 "/>
    <polygon id="358" class="fil150" points="14471.57,9102.3 7653.44,8276.58 7695.61,8244.5 "/>
    <polygon id="359" class="fil149" points="14471.57,9102.3 7687.17,8250.92 7730.63,8219 "/>
    <polygon id="360" class="fil148" points="14471.57,9102.3 7721.94,8225.38 7766.67,8193.63 "/>
    <polygon id="361" class="fil147" points="14471.57,9102.3 7757.73,8199.98 7803.73,8168.4 "/>
    <polygon id="362" class="fil146" points="14471.57,9102.3 7794.53,8174.72 7841.81,8143.32 "/>
    <polygon id="363" class="fil145" points="14471.57,9102.3 7832.35,8149.6 7880.89,8118.38 "/>
    <polygon id="364" class="fil144" points="14471.57,9102.3 7871.18,8124.62 7920.97,8093.58 "/>
    <polygon id="365" class="fil143" points="14471.57,9102.3 7911.01,8099.79 7962.04,8068.95 "/>
    <polygon id="366" class="fil142" points="14471.57,9102.3 7951.83,8075.11 8004.1,8044.46 "/>
    <polygon id="367" class="fil141" points="14471.57,9102.3 7993.65,8050.59 8047.15,8020.14 "/>
    <polygon id="368" class="fil140" points="14471.57,9102.3 8036.45,8026.23 8091.17,7995.98 "/>
    <polygon id="369" class="fil139" points="14471.57,9102.3 8080.22,8002.03 8136.15,7972 "/>
    <polygon id="370" class="fil138" points="14471.57,9102.3 8124.97,7978 8182.1,7948.18 "/>
    <polygon id="371" class="fil137" points="14471.57,9102.3 8170.67,7954.14 8229.01,7924.53 "/>
    <polygon id="372" class="fil136" points="14471.57,9102.3 8217.34,7930.46 8276.86,7901.07 "/>
    <polygon id="373" class="fil135" points="14471.57,9102.3 8264.95,7906.95 8325.65,7877.79 "/>
    <polygon id="374" class="fil134" points="14471.57,9102.3 8313.51,7883.62 8375.37,7854.69 "/>
    <polygon id="375" class="fil133" points="14471.57,9102.3 8363,7860.48 8426.02,7831.79 "/>
    <polygon id="376" class="fil132" points="14471.57,9102.3 8413.42,7837.53 8477.59,7809.07 "/>
    <polygon id="377" class="fil131" points="14471.57,9102.3 8464.75,7814.76 8530.06,7786.56 "/>
    <polygon id="378" class="fil130" points="14471.57,9102.3 8517,7792.2 8583.44,7764.24 "/>
    <polygon id="379" class="fil129" points="14471.57,9102.3 8570.15,7769.83 8637.72,7742.13 "/>
    <polygon id="380" class="fil128" points="14471.57,9102.3 8624.2,7747.67 8692.87,7720.22 "/>
    <polygon id="381" class="fil127" points="14471.57,9102.3 8679.14,7725.71 8748.91,7698.52 "/>
    <polygon id="382" class="fil126" points="14471.57,9102.3 8734.95,7703.96 8805.81,7677.03 "/>
    <polygon id="383" class="fil125" points="14471.57,9102.3 8791.64,7682.42 8863.57,7655.77 "/>
    <polygon id="384" class="fil124" points="14471.57,9102.3 8849.19,7661.1 8922.19,7634.72 "/>
    <polygon id="385" class="fil123" points="14471.57,9102.3 8907.59,7639.99 8981.65,7613.89 "/>
    <polygon id="386" class="fil122" points="14471.57,9102.3 8966.83,7619.11 9041.94,7593.29 "/>
    <polygon id="387" class="fil121" points="14471.57,9102.3 9026.91,7598.45 9103.05,7572.92 "/>
    <polygon id="388" class="fil120" points="14471.57,9102.3 9087.82,7578.02 9164.98,7552.78 "/>
    <polygon id="389" class="fil119" points="14471.57,9102.3 9149.55,7557.83 9227.71,7532.87 "/>
    <polygon id="390" class="fil118" points="14471.57,9102.3 9212.08,7537.86 9291.24,7513.21 "/>
    <polygon id="391" class="fil117" points="14471.57,9102.3 9275.41,7518.14 9355.56,7493.78 "/>
    <polygon id="392" class="fil116" points="14471.57,9102.3 9339.53,7498.65 9420.65,7474.6 "/>
    <polygon id="393" class="fil115" points="14471.57,9102.3 9404.43,7479.41 9486.51,7455.67 "/>
    <polygon id="394" class="fil114" points="14471.57,9102.3 9470.1,7460.42 9553.13,7436.99 "/>
    <polygon id="395" class="fil113" points="14471.57,9102.3 9536.52,7441.67 9620.49,7418.55 "/>
    <polygon id="396" class="fil112" points="14471.57,9102.3 9603.7,7423.18 9688.59,7400.38 "/>
    <polygon id="397" class="fil111" points="14471.57,9102.3 9671.61,7404.94 9757.42,7382.46 "/>
    <polygon id="398" class="fil110" points="14471.57,9102.3 9740.25,7386.96 9826.96,7364.81 "/>
    <polygon id="399" class="fil109" points="14471.57,9102.3 9809.62,7369.24 9897.2,7347.41 "/>
    <polygon id="400" class="fil108" points="14471.57,9102.3 9879.68,7351.78 9968.14,7330.29 "/>
    <polygon id="401" class="fil107" points="14471.57,9102.3 9950.45,7334.59 10039.77,7313.43 "/>
    <polygon id="402" class="fil106" points="14471.57,9102.3 10021.9,7317.66 10112.06,7296.85 "/>
    <polygon id="403" class="fil105" points="14471.57,9102.3 10094.03,7301.01 10185.02,7280.53 "/>
    <polygon id="404" class="fil104" points="14471.57,9102.3 10166.82,7284.63 10258.63,7264.5 "/>
    <polygon id="405" class="fil103" points="14471.57,9102.3 10240.27,7268.53 10332.88,7248.74 "/>
    <polygon id="406" class="fil102" points="14471.57,9102.3 10314.35,7252.7 10407.75,7233.27 "/>
    <polygon id="407" class="fil101" points="14471.57,9102.3 10389.07,7237.15 10483.24,7218.08 "/>
    <polygon id="408" class="fil100" points="14471.57,9102.3 10464.41,7221.89 10559.34,7203.17 "/>
    <polygon id="409" class="fil99" points="14471.57,9102.3 10540.36,7206.92 10636.03,7188.56 "/>
    <polygon id="410" class="fil98" points="14471.57,9102.3 10616.9,7192.23 10713.31,7174.23 "/>
    <polygon id="411" class="fil97" points="14471.57,9102.3 10694.03,7177.83 10791.15,7160.2 "/>
    <polygon id="412" class="fil96" points="14471.57,9102.3 10771.73,7163.72 10869.56,7146.46 "/>
    <polygon id="413" class="fil95" points="14471.57,9102.3 10849.99,7149.91 10948.51,7133.02 "/>
    <polygon id="414" class="fil94" points="14471.57,9102.3 10928.8,7136.39 11027.99,7119.87 "/>
    <polygon id="415" class="fil93" points="14471.57,9102.3 11008.15,7123.18 11108,7107.03 "/>
    <polygon id="416" class="fil92" points="14471.57,9102.3 11088.03,7110.26 11188.52,7094.49 "/>
    <polygon id="417" class="fil91" points="14471.57,9102.3 11168.42,7097.64 11269.53,7082.26 "/>
    <polygon id="418" class="fil90" points="14471.57,9102.3 11249.31,7085.33 11351.03,7070.33 "/>
    <polygon id="419" class="fil89" points="14471.57,9102.3 11330.69,7073.33 11433.01,7058.71 "/>
    <polygon id="420" class="fil88" points="14471.57,9102.3 11412.54,7061.63 11515.45,7047.4 "/>
    <polygon id="421" class="fil87" points="14471.57,9102.3 11494.86,7050.25 11598.33,7036.4 "/>
    <polygon id="422" class="fil86" points="14471.57,9102.3 11577.64,7039.17 11681.65,7025.72 "/>
    <polygon id="423" class="fil85" points="14471.57,9102.3 11660.85,7028.41 11765.4,7015.35 "/>
    <polygon id="424" class="fil84" points="14471.57,9102.3 11744.49,7017.96 11849.55,7005.3 "/>
    <polygon id="425" class="fil83" points="14471.57,9102.3 11828.54,7007.83 11934.11,6995.56 "/>
    <polygon id="426" class="fil82" points="14471.57,9102.3 11912.99,6998.02 12019.05,6986.15 "/>
    <polygon id="427" class="fil81" points="14471.57,9102.3 11997.84,6988.52 12104.36,6977.06 "/>
    <polygon id="428" class="fil80" points="14471.57,9102.3 12083.05,6979.35 12190.03,6968.29 "/>
    <polygon id="429" class="fil79" points="14471.57,9102.3 12168.63,6970.5 12276.05,6959.84 "/>
    <polygon id="430" class="fil78" points="14471.57,9102.3 12254.56,6961.97 12362.4,6951.72 "/>
    <polygon id="431" class="fil77" points="14471.57,9102.3 12340.83,6953.77 12449.07,6943.92 "/>
    <polygon id="432" class="fil76" points="14471.57,9102.3 12427.42,6945.89 12536.04,6936.46 "/>
    <polygon id="433" class="fil75" points="14471.57,9102.3 12514.32,6938.34 12623.31,6929.32 "/>
    <polygon id="434" class="fil74" points="14471.57,9102.3 12601.51,6931.12 12710.86,6922.51 "/>
    <polygon id="435" class="fil73" points="14471.57,9102.3 12688.99,6924.23 12798.68,6916.03 "/>
    <polygon id="436" class="fil72" points="14471.57,9102.3 12776.74,6917.67 12886.76,6909.89 "/>
    <polygon id="437" class="fil71" points="14471.57,9102.3 12864.75,6911.44 12975.07,6904.07 "/>
    <polygon id="438" class="fil70" points="14471.57,9102.3 12953,6905.55 13063.61,6898.59 "/>
    <polygon id="439" class="fil69" points="14471.57,9102.3 13041.49,6899.98 13152.36,6893.45 "/>
    <polygon id="440" class="fil68" points="14471.57,9102.3 13130.19,6894.76 13241.32,6888.64 "/>
    <polygon id="441" class="fil67" points="14471.57,9102.3 13219.09,6889.86 13330.46,6884.17 "/>
    <polygon id="442" class="fil66" points="14471.57,9102.3 13308.18,6885.3 13419.77,6880.03 "/>
    <polygon id="443" class="fil65" points="14471.57,9102.3 13397.45,6881.08 13509.25,6876.23 "/>
    <polygon id="444" class="fil64" points="14471.57,9102.3 13486.89,6877.2 13598.87,6872.77 "/>
    <polygon id="445" class="fil63" points="14471.57,9102.3 13576.47,6873.65 13688.62,6869.64 "/>
    <polygon id="446" class="fil62" points="14471.57,9102.3 13666.19,6870.45 13778.49,6866.86 "/>
    <polygon id="447" class="fil61" points="14471.57,9102.3 13756.03,6867.58 13868.47,6864.41 "/>
    <polygon id="448" class="fil60" points="14471.57,9102.3 13845.98,6865.05 13958.53,6862.31 "/>
    <polygon id="449" class="fil59" points="14471.57,9102.3 13936.02,6862.86 14048.68,6860.54 "/>
    <polygon id="450" class="fil58" points="14471.57,9102.3 14026.15,6861 14138.89,6859.12 "/>
    <polygon id="451" class="fil57" points="14471.57,9102.3 14116.34,6859.49 14229.15,6858.03 "/>
    <polygon id="452" class="fil56" points="14471.57,9102.3 14206.59,6858.32 14319.45,6857.29 "/>
    <polygon id="453" class="fil55" points="14471.57,9102.3 14296.87,6857.49 14409.77,6856.88 "/>
    <polygon id="454" class="fil54" points="14471.57,9102.3 14387.19,6857.01 14500.1,6856.82 "/>
    <polygon id="455" class="fil53" points="14471.57,9102.3 14477.51,6856.86 14590.42,6857.1 "/>
    <polygon id="456" class="fil52" points="14471.57,9102.3 14567.84,6857.05 14680.73,6857.72 "/>
    <polygon id="457" class="fil51" points="14471.57,9102.3 14658.15,6857.58 14771,6858.68 "/>
    <polygon id="458" class="fil50" points="14471.57,9102.3 14748.43,6858.46 14861.23,6859.98 "/>
    <polygon id="459" class="fil49" points="14471.57,9102.3 14838.67,6859.67 14951.4,6861.62 "/>
    <polygon id="460" class="fil48" points="14471.57,9102.3 14928.86,6861.23 15041.5,6863.6 "/>
    <polygon id="461" class="fil47" points="14471.57,9102.3 15018.97,6863.12 15131.51,6865.92 "/>
    <polygon id="462" class="fil46" points="14471.57,9102.3 15109.01,6865.36 15221.43,6868.58 "/>
    <polygon id="463" class="fil45" points="14471.57,9102.3 15198.94,6867.93 15311.22,6871.58 "/>
    <polygon id="464" class="fil44" points="14471.57,9102.3 15288.77,6870.85 15400.89,6874.91 "/>
    <polygon id="465" class="fil43" points="14471.57,9102.3 15378.47,6874.1 15490.42,6878.59 "/>
    <polygon id="466" class="fil42" points="14471.57,9102.3 15468.03,6877.69 15579.8,6882.6 "/>
    <polygon id="467" class="fil41" points="14471.57,9102.3 15557.44,6881.62 15669,6886.95 "/>
    <polygon id="468" class="fil40" points="14471.57,9102.3 15646.69,6885.89 15758.03,6891.64 "/>
    <polygon id="469" class="fil39" points="14471.57,9102.3 15735.76,6890.49 15846.86,6896.66 "/>
    <polygon id="470" class="fil38" points="14471.57,9102.3 15824.64,6895.43 15935.48,6902.02 "/>
    <polygon id="471" class="fil37" points="14471.57,9102.3 15913.31,6900.7 16023.88,6907.71 "/>
    <polygon id="472" class="fil36" points="14471.57,9102.3 16001.76,6906.3 16112.04,6913.73 "/>
    <polygon id="473" class="fil35" points="14471.57,9102.3 16089.98,6912.25 16199.95,6920.09 "/>
    <polygon id="474" class="fil34" points="14471.57,9102.3 16177.96,6918.52 16287.6,6926.77 "/>
    <polygon id="475" class="fil33" points="14471.57,9102.3 16265.67,6925.12 16374.98,6933.79 "/>
    <polygon id="476" class="fil32" points="14471.57,9102.3 16353.12,6932.06 16462.07,6941.14 "/>
    <polygon id="477" class="fil31" points="14471.57,9102.3 16440.28,6939.32 16548.85,6948.81 "/>
    <polygon id="478" class="fil30" points="14471.57,9102.3 16527.14,6946.91 16635.32,6956.81 "/>
    <polygon id="479" class="fil29" points="14471.57,9102.3 16613.68,6954.83 16721.46,6965.14 "/>
    <polygon id="480" class="fil28" points="14471.57,9102.3 16699.9,6963.08 16807.26,6973.79 "/>
    <polygon id="481" class="fil27" points="14471.57,9102.3 16785.79,6971.65 16892.71,6982.76 "/>
    <polygon id="482" class="fil26" points="14471.57,9102.3 16871.32,6980.54 16977.78,6992.06 "/>
    <polygon id="483" class="fil25" points="14471.57,9102.3 16956.49,6989.75 17062.48,7001.67 "/>
    <polygon id="484" class="fil24" points="14471.57,9102.3 17041.28,6999.29 17146.78,7011.61 "/>
    <polygon id="485" class="fil23" points="14471.57,9102.3 17125.68,7009.15 17230.68,7021.86 "/>
    <polygon id="486" class="fil22" points="14471.57,9102.3 17209.68,7019.32 17314.16,7032.43 "/>
    <polygon id="487" class="fil21" points="14471.57,9102.3 17293.26,7029.81 17397.21,7043.31 "/>
    <polygon id="488" class="fil20" points="14471.57,9102.3 17376.42,7040.61 17479.81,7054.51 "/>
    <polygon id="489" class="fil19" points="14471.57,9102.3 17459.13,7051.73 17561.96,7066.01 "/>
    <polygon id="490" class="fil18" points="14471.57,9102.3 17541.39,7063.16 17643.64,7077.83 "/>
    <polygon id="491" class="fil17" points="14471.57,9102.3 17623.19,7074.89 17724.83,7089.95 "/>
    <polygon id="492" class="fil16" points="14471.57,9102.3 17704.5,7086.94 17805.54,7102.38 "/>
    <polygon id="493" class="fil15" points="14471.57,9102.3 17785.33,7099.29 17885.73,7115.11 "/>
    <polygon id="494" class="fil14" points="14471.57,9102.3 17865.65,7111.94 17965.41,7128.14 "/>
    <polygon id="495" class="fil13" points="14471.57,9102.3 17945.46,7124.9 18044.56,7141.47 "/>
    <polygon id="496" class="fil12" points="14471.57,9102.3 18024.74,7138.16 18123.17,7155.1 "/>
    <polygon id="497" class="fil11" points="14471.57,9102.3 18103.48,7151.71 18201.22,7169.03 "/>
    <polygon id="498" class="fil10" points="14471.57,9102.3 18181.67,7165.56 18278.7,7183.25 "/>
    <polygon id="499" class="fil9" points="14471.57,9102.3 18259.3,7179.71 18355.61,7197.76 "/>
    <polygon id="500" class="fil8" points="14471.57,9102.3 18336.35,7194.15 18431.93,7212.55 "/>
    <polygon id="501" class="fil7" points="14471.57,9102.3 18412.81,7208.87 18507.65,7227.64 "/>
    <polygon id="502" class="fil6" points="14471.57,9102.3 18488.68,7223.89 18582.75,7243.01 "/>
    <polygon id="503" class="fil5" points="14471.57,9102.3 18563.94,7239.19 18657.23,7258.66 "/>
    <polygon id="504" class="fil4" points="14471.57,9102.3 18638.57,7254.77 18731.08,7274.6 "/>
    <polygon id="505" class="fil3" points="14471.57,9102.3 18712.57,7270.63 18804.27,7290.81 "/>
    <polygon id="506" class="fil2" points="14471.57,9102.3 18785.93,7286.77 18876.82,7307.29 "/>
    <polygon id="507" class="fil1" points="14471.57,9102.3 18858.64,7303.19 18948.69,7324.05 "/>
    <polygon id="508" class="fil0" points="14471.57,9102.3 18930.68,7319.88 19019.88,7341.07 "/>
    <polygon id="509" class="fil255" points="14471.57,9102.3 19002.04,7336.83 19072.71,7354.06 "/>
   </g>
  </g>
  <path class="fil256" style="mask:url(#id4)" d="M14293.98 7116.54c626.31,-111.69 1259.4,-81.37 1814.22,132.04 393.22,151.27 1465.09,436.26 2097.82,2259.49 17.02,-14.07 -252.1,-655.12 -603.98,-1158.62 -132.9,-190.21 -308.94,-346.71 -440.2,-462.94 -219.11,-175.25 -390.99,-320.44 -647.99,-435.32 -583.59,-260.87 -1249.57,-355.59 -1927.14,-234.76 -1793.98,319.92 -2989.69,2029.08 -2670.74,3817.58 318.94,1788.51 2031.75,2979 3825.72,2659.08 543.26,-96.88 1012.03,-357.52 1420.08,-672.79 207.5,-160.34 413.87,-307.97 576.52,-510.62 -23.65,-11.06 23.32,11.74 0,0 -207.1,295.21 -530.98,523.25 -822.27,740.36 -406.49,302.96 -886.97,518.27 -1418.92,613.13 -1844.94,329.01 -3609.85,-914.54 -3942.08,-2777.57 -332.24,-1863.05 894.02,-3640.05 2738.96,-3969.06z"/>
  <path class="fil257" d="M11676.67 9813.01c4.5,-67.84 149.54,-723.75 462.08,-1185.17 1029.33,-1519.72 2802.25,-1913.64 4265.16,-1246.2 98.05,44.73 198.68,83.53 284.36,135.52 205.47,124.65 364.15,253.46 363.78,252.01 -0.28,-1.1 -160.37,-119.67 -371.66,-242.06 -184.68,-106.99 -476.74,-211.66 -561.13,-239.39 -2095.49,-688.8 -4092.42,880.08 -4442.59,2525.29z"/>
 </g>
</svg>
